<svg width="274" height="63" viewBox="0 0 274 63" fill="none" xmlns="http://www.w3.org/2000/svg">
<path d="M3 22C3 21.1716 2.32843 20.5 1.5 20.5C0.671573 20.5 0 21.1716 0 22H3ZM0 22L0 42H3L3 22H0Z" fill="#4CAF50"/>
<path d="M21 17C21 16.1716 20.3284 15.5 19.5 15.5C18.6716 15.5 18 16.1716 18 17H21ZM18 17V47H21V17H18Z" fill="#4CAF50"/>
<path d="M39 12C39 11.1716 38.3284 10.5 37.5 10.5C36.6716 10.5 36 11.1716 36 12H39ZM36 12V52H39V12H36Z" fill="#4CAF50"/>
<path d="M57 7C57 6.17157 56.3284 5.5 55.5 5.5C54.6716 5.5 54 6.17157 54 7H57ZM54 7V57H57V7H54Z" fill="#4CAF50"/>
<path d="M75 2C75 1.17157 74.3284 0.5 73.5 0.5C72.6716 0.5 72 1.17157 72 2H75ZM72 2V62H75V2H72Z" fill="#4CAF50"/>
<path d="M82.892 40.4109V36.5455H103.201V40.4109H95.3335V62H90.7596V40.4109H82.892ZM116.488 53.9709V42.9091H120.987V62H116.624V58.6069H116.425C115.995 59.6758 115.286 60.55 114.3 61.2294C113.322 61.9089 112.117 62.2486 110.683 62.2486C109.432 62.2486 108.326 61.971 107.365 61.4158C106.412 60.8524 105.666 60.0362 105.127 58.9673C104.589 57.8902 104.32 56.5893 104.32 55.0646V42.9091H108.819V54.3686C108.819 55.5784 109.15 56.5395 109.813 57.2521C110.476 57.9647 111.346 58.321 112.423 58.321C113.086 58.321 113.728 58.1594 114.35 57.8363C114.971 57.5131 115.481 57.0326 115.879 56.3945C116.285 55.7482 116.488 54.9403 116.488 53.9709ZM130.113 50.8139V62H125.614V42.9091H129.914V46.1531H130.138C130.577 45.0842 131.277 44.2348 132.238 43.6051C133.208 42.9754 134.405 42.6605 135.83 42.6605C137.148 42.6605 138.295 42.9422 139.273 43.5057C140.259 44.0691 141.021 44.8853 141.56 45.9542C142.107 47.0231 142.376 48.3198 142.368 49.8445V62H137.869V50.5405C137.869 49.2644 137.537 48.266 136.874 47.5451C136.22 46.8242 135.312 46.4638 134.152 46.4638C133.365 46.4638 132.665 46.6378 132.052 46.9858C131.447 47.3255 130.97 47.8185 130.622 48.4648C130.283 49.1112 130.113 49.8942 130.113 50.8139ZM155.393 62.3729C153.479 62.3729 151.826 61.9751 150.434 61.1797C149.05 60.3759 147.986 59.2408 147.24 57.7741C146.494 56.2992 146.121 54.5633 146.121 52.5664C146.121 50.6026 146.494 48.8791 147.24 47.396C147.994 45.9045 149.046 44.7444 150.397 43.9158C151.748 43.079 153.334 42.6605 155.157 42.6605C156.334 42.6605 157.444 42.8511 158.488 43.2322C159.541 43.6051 160.469 44.1851 161.272 44.9723C162.084 45.7595 162.722 46.7621 163.186 47.9801C163.65 49.1899 163.882 50.6316 163.882 52.3054V53.685H148.234V50.6523H159.57C159.561 49.7906 159.375 49.0241 159.01 48.353C158.646 47.6735 158.136 47.1391 157.481 46.7496C156.835 46.3602 156.081 46.1655 155.219 46.1655C154.3 46.1655 153.492 46.3892 152.796 46.8366C152.1 47.2758 151.557 47.8558 151.168 48.5767C150.786 49.2893 150.592 50.0723 150.583 50.9258V53.5732C150.583 54.6835 150.786 55.6364 151.192 56.4318C151.598 57.219 152.166 57.8239 152.895 58.2464C153.624 58.6607 154.478 58.8679 155.456 58.8679C156.11 58.8679 156.703 58.7768 157.233 58.5945C157.763 58.4039 158.223 58.1263 158.612 57.7617C159.002 57.3971 159.296 56.9455 159.495 56.407L163.696 56.8793C163.431 57.9896 162.925 58.959 162.18 59.7876C161.442 60.608 160.498 61.246 159.346 61.7017C158.194 62.1491 156.877 62.3729 155.393 62.3729ZM167.888 62V36.5455H172.387V46.0661H172.573C172.805 45.602 173.133 45.109 173.555 44.587C173.978 44.0567 174.55 43.6051 175.27 43.2322C175.991 42.8511 176.911 42.6605 178.03 42.6605C179.505 42.6605 180.834 43.0375 182.019 43.7915C183.213 44.5373 184.157 45.6435 184.853 47.1101C185.557 48.5684 185.91 50.3582 185.91 52.4794C185.91 54.5758 185.566 56.3572 184.878 57.8239C184.19 59.2905 183.254 60.4091 182.069 61.1797C180.884 61.9503 179.542 62.3356 178.042 62.3356C176.948 62.3356 176.041 62.1533 175.32 61.7887C174.599 61.4241 174.019 60.985 173.58 60.4712C173.149 59.9492 172.814 59.4562 172.573 58.9922H172.312V62H167.888ZM172.3 52.4545C172.3 53.6892 172.474 54.7705 172.822 55.6985C173.178 56.6265 173.688 57.3516 174.351 57.8736C175.022 58.3873 175.834 58.6442 176.787 58.6442C177.781 58.6442 178.614 58.379 179.285 57.8487C179.956 57.3101 180.462 56.5768 180.801 55.6488C181.149 54.7125 181.323 53.6477 181.323 52.4545C181.323 51.2696 181.153 50.2173 180.814 49.2976C180.474 48.3778 179.969 47.657 179.297 47.1349C178.626 46.6129 177.789 46.3519 176.787 46.3519C175.826 46.3519 175.009 46.6046 174.338 47.1101C173.667 47.6155 173.157 48.324 172.809 49.2354C172.47 50.1469 172.3 51.2199 172.3 52.4545ZM198.062 62.3729C196.198 62.3729 194.582 61.9627 193.215 61.1424C191.848 60.3221 190.787 59.1745 190.033 57.6996C189.287 56.2247 188.914 54.5012 188.914 52.5291C188.914 50.5571 189.287 48.8294 190.033 47.3462C190.787 45.863 191.848 44.7113 193.215 43.891C194.582 43.0707 196.198 42.6605 198.062 42.6605C199.926 42.6605 201.542 43.0707 202.909 43.891C204.277 44.7113 205.333 45.863 206.079 47.3462C206.833 48.8294 207.21 50.5571 207.21 52.5291C207.21 54.5012 206.833 56.2247 206.079 57.6996C205.333 59.1745 204.277 60.3221 202.909 61.1424C201.542 61.9627 199.926 62.3729 198.062 62.3729ZM198.087 58.7685C199.098 58.7685 199.943 58.4909 200.622 57.9357C201.302 57.3723 201.807 56.6183 202.139 55.6737C202.478 54.729 202.648 53.6767 202.648 52.5167C202.648 51.3484 202.478 50.2919 202.139 49.3473C201.807 48.3944 201.302 47.6362 200.622 47.0728C199.943 46.5094 199.098 46.2276 198.087 46.2276C197.051 46.2276 196.189 46.5094 195.502 47.0728C194.822 47.6362 194.313 48.3944 193.973 49.3473C193.641 50.2919 193.476 51.3484 193.476 52.5167C193.476 53.6767 193.641 54.729 193.973 55.6737C194.313 56.6183 194.822 57.3723 195.502 57.9357C196.189 58.4909 197.051 58.7685 198.087 58.7685ZM223.197 53.9709V42.9091H227.696V62H223.333V58.6069H223.134C222.704 59.6758 221.995 60.55 221.009 61.2294C220.031 61.9089 218.826 62.2486 217.392 62.2486C216.141 62.2486 215.035 61.971 214.074 61.4158C213.121 60.8524 212.375 60.0362 211.836 58.9673C211.298 57.8902 211.029 56.5893 211.029 55.0646V42.9091H215.528V54.3686C215.528 55.5784 215.859 56.5395 216.522 57.2521C217.185 57.9647 218.055 58.321 219.132 58.321C219.795 58.321 220.437 58.1594 221.059 57.8363C221.68 57.5131 222.19 57.0326 222.588 56.3945C222.994 55.7482 223.197 54.9403 223.197 53.9709ZM236.822 50.8139V62H232.323V42.9091H236.623V46.1531H236.847C237.286 45.0842 237.986 44.2348 238.947 43.6051C239.917 42.9754 241.114 42.6605 242.539 42.6605C243.857 42.6605 245.004 42.9422 245.982 43.5057C246.968 44.0691 247.73 44.8853 248.269 45.9542C248.816 47.0231 249.085 48.3198 249.077 49.8445V62H244.578V50.5405C244.578 49.2644 244.246 48.266 243.583 47.5451C242.929 46.8242 242.021 46.4638 240.861 46.4638C240.074 46.4638 239.374 46.6378 238.761 46.9858C238.156 47.3255 237.679 47.8185 237.331 48.4648C236.992 49.1112 236.822 49.8942 236.822 50.8139ZM260.735 62.3356C259.235 62.3356 257.893 61.9503 256.708 61.1797C255.523 60.4091 254.587 59.2905 253.899 57.8239C253.211 56.3572 252.868 54.5758 252.868 52.4794C252.868 50.3582 253.216 48.5684 253.912 47.1101C254.616 45.6435 255.565 44.5373 256.758 43.7915C257.951 43.0375 259.281 42.6605 260.748 42.6605C261.866 42.6605 262.786 42.8511 263.507 43.2322C264.228 43.6051 264.799 44.0567 265.222 44.587C265.645 45.109 265.972 45.602 266.204 46.0661H266.39V36.5455H270.902V62H266.477V58.9922H266.204C265.972 59.4562 265.636 59.9492 265.197 60.4712C264.758 60.985 264.178 61.4241 263.457 61.7887C262.736 62.1533 261.829 62.3356 260.735 62.3356ZM261.991 58.6442C262.943 58.6442 263.755 58.3873 264.427 57.8736C265.098 57.3516 265.607 56.6265 265.955 55.6985C266.303 54.7705 266.477 53.6892 266.477 52.4545C266.477 51.2199 266.303 50.1469 265.955 49.2354C265.616 48.324 265.11 47.6155 264.439 47.1101C263.776 46.6046 262.96 46.3519 261.991 46.3519C260.988 46.3519 260.151 46.6129 259.48 47.1349C258.809 47.657 258.303 48.3778 257.964 49.2976C257.624 50.2173 257.454 51.2696 257.454 52.4545C257.454 53.6477 257.624 54.7125 257.964 55.6488C258.312 56.5768 258.821 57.3101 259.492 57.8487C260.172 58.379 261.004 58.6442 261.991 58.6442Z" fill="white"/>
</svg>
