<svg width="75" height="62" viewBox="0 0 75 62" fill="none" xmlns="http://www.w3.org/2000/svg">
<path d="M3 22C3 21.1716 2.32843 20.5 1.5 20.5C0.671573 20.5 0 21.1716 0 22H3ZM0 22L0 42H3L3 22H0Z" fill="#4CAF50"/>
<path d="M21 17C21 16.1716 20.3284 15.5 19.5 15.5C18.6716 15.5 18 16.1716 18 17H21ZM18 17V47H21V17H18Z" fill="#4CAF50"/>
<path d="M39 12C39 11.1716 38.3284 10.5 37.5 10.5C36.6716 10.5 36 11.1716 36 12H39ZM36 12V52H39V12H36Z" fill="#4CAF50"/>
<path d="M57 7C57 6.17157 56.3284 5.5 55.5 5.5C54.6716 5.5 54 6.17157 54 7H57ZM54 7V57H57V7H54Z" fill="#4CAF50"/>
<path d="M75 2C75 1.17157 74.3284 0.5 73.5 0.5C72.6716 0.5 72 1.17157 72 2H75ZM72 2V62H75V2H72Z" fill="#4CAF50"/>
</svg>
